# xmcd
#
# Track frame offsets:
#	150
#	26171
#	48750
#	72040
#	88865
#	106213
#	126097
#	147102
#	166354
#	189515
#	210329
#	221157
#	239950
#	258183
#	279885
#	309775
#	332866
#
# Disc length: 4687 seconds
#
# Revision: 0
# Processed by: cddbd v1.5.1PL0 Copyright (c) Steve Scherf et al.
# Submitted via: dBpowerAMP V4.0
#
DISCID=f3124d11
DTITLE=him - tu badli
DYEAR=2005
DGENRE=Bass
TTITLE0=gire
TTITLE1=2
TTITLE2=2
TTITLE3=5
TTITLE4=5
TTITLE5=52
TTITLE6=52
TTITLE7=5
TTITLE8=Tu Badli
TTITLE9=5
TTITLE10=5
TTITLE11=3
TTITLE12=5
TTITLE13=65
TTITLE14=5
TTITLE15=5
TTITLE16=5
EXTD=
EXTT0=
EXTT1=
EXTT2=
EXTT3=
EXTT4=
EXTT5=
EXTT6=
EXTT7=
EXTT8=
EXTT9=
EXTT10=
EXTT11=
EXTT12=
EXTT13=
EXTT14=
EXTT15=
EXTT16=
PLAYORDER=
